<svg xmlns="http://www.w3.org/2000/svg" xmlns:xlink="http://www.w3.org/1999/xlink" id="Layer_1" width="512" height="512" x="0" y="0" enable-background="new 0 0 512 512" version="1.1" viewBox="0 0 512 512" xml:space="preserve"><path d="M399.451,347.869L297.76,246.18l74.053-31.949c5.746-2.479,9.348-8.265,9.039-14.515c-0.311-6.25-4.467-11.651-10.43-13.551	l-242.713-77.302c-5.346-1.7-11.193-0.28-15.158,3.687c-3.967,3.966-5.389,9.813-3.688,15.158l77.303,242.713	c1.898,5.963,7.301,10.12,13.551,10.43c6.25,0.311,12.035-3.294,14.514-9.039l31.949-74.052l101.691,101.69	c2.813,2.813,6.627,4.394,10.605,4.394s7.795-1.58,10.607-4.394l30.367-30.368C405.309,363.224,405.309,353.727,399.451,347.869z"/></svg>