<svg xmlns="http://www.w3.org/2000/svg" xmlns:xlink="http://www.w3.org/1999/xlink" id="Layer_1" width="512" height="512" x="0" y="0" enable-background="new 0 0 512 512" version="1.1" viewBox="0 0 512 512" xml:space="preserve"><path d="M407.043,124.014c1.859-5.419,0.469-11.424-3.582-15.475s-10.059-5.44-15.475-3.58	c-52.936,18.168-92.408,25.92-131.986,25.92s-79.051-7.752-131.986-25.92c-5.414-1.859-11.424-0.471-15.475,3.58	s-5.441,10.056-3.582,15.475c34.701,101.148,34.701,162.824,0,263.973c-1.859,5.419-0.469,11.424,3.582,15.475	c4.051,4.05,10.057,5.439,15.475,3.58c52.936-18.168,92.408-25.92,131.986-25.92s79.051,7.752,131.986,25.92	c1.594,0.547,3.236,0.813,4.867,0.813c3.912,0,7.748-1.533,10.607-4.393c4.051-4.051,5.441-10.056,3.582-15.475	C372.342,286.838,372.342,225.162,407.043,124.014z"/></svg>