<svg xmlns="http://www.w3.org/2000/svg" xmlns:xlink="http://www.w3.org/1999/xlink" id="Layer_1" width="512" height="512" x="0" y="0" enable-background="new 0 0 512 512" version="1.1" viewBox="0 0 512 512" xml:space="preserve"><path d="M446,56H66c-5.522,0-10,4.477-10,10V446c0,5.523,4.478,10,10,10h380c5.522,0,10-4.477,10-10V66	C456,60.478,451.522,56,446,56z M109.4,416H96V96h13.4V416z M139.4,416h-10V96h10V416z M189.4,416h-30V96h30V416z M249.4,416h-40V96	h40V416z M329.4,416h-60V96h60V416z M416,416h-66.6V96H416V416z"/></svg>