<svg xmlns="http://www.w3.org/2000/svg" xmlns:xlink="http://www.w3.org/1999/xlink" id="Layer_1" width="512" height="512" x="0" y="0" enable-background="new 0 0 512 512" version="1.1" viewBox="0 0 512 512" xml:space="preserve"><path d="M446,56H66c-5.521,0-10,4.477-10,10V446c0,5.523,4.479,10,10,10h380c5.522,0,10-4.477,10-10V66	C456,60.478,451.522,56,446,56z M181.971,416H96v-85.97h85.971V416z M181.971,300.029H96v-88.059h85.971V300.029z M181.971,181.971	H96V96h85.971V181.971z M300.029,416h-88.059v-85.97h88.059V416z M300.029,300.029h-88.059v-88.059h88.059V300.029z M300.029,181.971h-88.059V96h88.059V181.971z M416,416h-85.971v-85.97H416V416z M416,300.029h-85.971v-88.059H416V300.029z M416,181.971h-85.971V96H416V181.971z"/></svg>