<svg xmlns="http://www.w3.org/2000/svg" xmlns:xlink="http://www.w3.org/1999/xlink" id="Layer_1" width="512" height="512" x="0" y="0" enable-background="new 0 0 512 512" version="1.1" viewBox="0 0 512 512" xml:space="preserve"><g><path d="M429.193,203.572L308.549,82.936c-5.858-5.857-15.354-5.857-21.212,0L131.028,239.24c-0.001,0.001,0,0-0.001,0.001 l141.855,141.856l156.312-156.312c2.813-2.813,4.394-6.629,4.394-10.607C433.587,210.201,432.006,206.385,429.193,203.572z"/><path d="M78.946,404.364c-1.443,5.379,0.094,11.119,4.033,15.057l9.478,9.475c3.938,3.936,9.676,5.472,15.052,4.029l136.271-36.552 L115.497,268.09L78.946,404.364z"/></g></svg>