<svg xmlns="http://www.w3.org/2000/svg" xmlns:xlink="http://www.w3.org/1999/xlink" id="Capa_1" width="64" height="64" x="0" y="0" enable-background="new 0 0 64 64" version="1.1" viewBox="0 0 64 64" xml:space="preserve"><g><circle cx="56.573" cy="37.116" r="5.266" fill="#101111"/><path fill="#101111" d="M46.404,32.689c0-3.744,0-7.483,0-11.228c0-3.286-5.096-3.286-5.096,0c0,3.73,0,7.461,0,11.19 c-3.713,0-7.429,0-11.144,0c-1.746,0-3.001,0.768-3.765,1.863c-6.707,0-13.413,0-20.12,0c-4.107,0-4.107,6.369,0,6.369 c6.842,0,13.683,0,20.524,0c0.762,0.799,1.855,1.322,3.293,1.322c5.211,0,10.422,0,15.633,0 C51.693,42.211,51.943,33.293,46.404,32.689z"/></g></svg>