<svg xmlns="http://www.w3.org/2000/svg" xmlns:xlink="http://www.w3.org/1999/xlink" id="Capa_1" width="64" height="64" x="0" y="0" enable-background="new 0 0 64 64" version="1.1" viewBox="0 0 64 64" xml:space="preserve"><g><circle cx="30.737" cy="6.344" r="6.073" fill="#0E0F0F"/><path fill="#0E0F0F" d="M39.906,19.764c-4.453-6.264-14.473-6.645-14.473-0.074l0.043,12.737c-1.264,1.69-2.063,4.142-2.063,6.874 c0,2.771,0.819,5.248,2.11,6.94l0.048,14.089c0,1.875,1.522,3.397,3.399,3.397h0.813c1.876,0,2.911-1.276,3.398-3.397 c0.702-3.061,2.85-12.231,2.85-12.231c3.763-0.915,9.157-6.08,9.157-13.583C45.191,27.013,40.937,21.213,39.906,19.764z"/></g></svg>