<svg xmlns="http://www.w3.org/2000/svg" xmlns:xlink="http://www.w3.org/1999/xlink" id="Capa_1" width="64" height="64" x="0" y="0" enable-background="new 0 0 64 64" version="1.1" viewBox="0 0 64 64" xml:space="preserve"><g><circle cx="53.812" cy="47.324" r="6.25" fill="#0F1011"/><path fill="#0F1011" d="M40.143,40.723h-15.12c-0.612,0-1.201,0.092-1.762,0.254V14.206c0-2.088-1.692-3.78-3.779-3.78 c-2.088,0-3.78,1.692-3.78,3.78v33.26c-2.771,0-5.544,0-8.315,0c-3.9,0-3.9,6.048,0,6.048c5.598,0,11.196,0,16.794,0 c0.276,0.037,0.557,0.062,0.843,0.062h15.121c3.547,0,6.424-2.877,6.424-6.425C46.566,43.602,43.689,40.723,40.143,40.723z"/></g></svg>