<svg xmlns="http://www.w3.org/2000/svg" xmlns:xlink="http://www.w3.org/1999/xlink" id="Layer_1" width="48" height="48" x="0" y="0" enable-background="new 0 0 48 48" version="1.1" viewBox="0 0 48 48" xml:space="preserve"><path fill="#050505" d="M23.979,1C11.288,1,1,11.289,1,23.979s10.288,22.979,22.979,22.979c12.69,0,22.979-10.289,22.979-22.979	S36.67,1,23.979,1z M33.253,27.976h-5.301v5.289c0,2.208-1.765,3.997-3.972,3.997c-2.206,0-3.971-1.789-3.971-3.997v-5.29h-5.299	c-2.207,0-4.006-1.79-4.006-3.997s1.796-3.996,4.003-3.996h5.302v-5.289c0-2.208,1.765-3.997,3.971-3.997	c2.207,0,3.972,1.789,3.972,3.997v5.29h5.301c2.207,0,3.997,1.79,3.997,3.997S35.46,27.976,33.253,27.976z"/></svg>