<svg xmlns="http://www.w3.org/2000/svg" xmlns:xlink="http://www.w3.org/1999/xlink" id="Layer_1" width="48" height="48" x="0" y="0" enable-background="new 0 0 48 48" version="1.1" viewBox="0 0 48 48" xml:space="preserve"><path fill="#050505" d="M24,1.041c-12.702,0-23,10.297-23,23s10.298,23,23,23s23-10.297,23-23S36.702,1.041,24,1.041z M41,24.041	c0,2.855-0.716,5.545-1.965,7.91L18.129,8.107C19.962,7.429,21.935,7.041,24,7.041C33.374,7.041,41,14.667,41,24.041z M7,24.041	c0-2.925,0.743-5.68,2.049-8.085l21.003,23.952c-1.884,0.721-3.918,1.133-6.052,1.133C14.626,41.041,7,33.415,7,24.041z"/></svg>