<svg xmlns="http://www.w3.org/2000/svg" xmlns:xlink="http://www.w3.org/1999/xlink" id="Layer_1" width="48" height="48" x="0" y="0" enable-background="new 0 0 48 48" version="1.1" viewBox="0 0 48 48" xml:space="preserve"><g><ellipse cx="23.926" cy="22.065" fill="#050505" rx="3.396" ry="3.384"/><ellipse cx="33.222" cy="22.065" fill="#050505" rx="3.396" ry="3.384"/><ellipse cx="42.518" cy="22.065" fill="#050505" rx="3.396" ry="3.384"/><path fill="#050505" d="M24.765,31.071c-0.014,0.006-4.544,1.931-4.544,1.931l-7.276-17.441c0,0,4.549-1.884,4.561-1.889 c1.154-0.48,0.942-3.621-0.472-7.012c-1.416-3.392-3.499-5.752-4.652-5.272C12.367,1.395,7.21,3.571,7.21,3.571 c-4.652,2.32-6.818,7.909-4.784,12.786l9.821,23.541c2.121,5.088,8.013,7.473,13.085,5.357c0,0,4.542-1.896,4.557-1.9 c1.152-0.481,0.942-3.621-0.473-7.014C28,32.949,25.918,30.59,24.765,31.071z"/></g></svg>