<svg xmlns="http://www.w3.org/2000/svg" xmlns:xlink="http://www.w3.org/1999/xlink" id="Layer_1" width="48" height="48" x="0" y="0" enable-background="new 0 0 48 48" version="1.1" viewBox="0 0 48 48" xml:space="preserve"><g><g><path fill="#050505" d="M38.165,1H8.835C4.197,1,0.438,4.76,0.438,9.398v29.203C0.438,43.24,4.197,47,8.835,47h29.329 c4.638,0,8.398-3.76,8.398-8.398V9.398C46.563,4.76,42.803,1,38.165,1z M38.445,20.078L22.58,35.943 c-0.673,0.674-1.586,1.052-2.538,1.052s-1.865-0.379-2.538-1.052L9.641,28.08c-1.401-1.402-1.401-3.674,0.001-5.077 c0.673-0.673,1.585-1.051,2.537-1.051s1.864,0.378,2.537,1.051l4.686,4.687c0.17,0.17,0.401,0.265,0.641,0.265 s0.471-0.095,0.641-0.265L33.37,15.003c0.673-0.673,1.586-1.052,2.538-1.052c0.952,0.001,1.865,0.379,2.538,1.052 C39.847,16.405,39.847,18.677,38.445,20.078z"/></g></g></svg>