<svg xmlns="http://www.w3.org/2000/svg" xmlns:xlink="http://www.w3.org/1999/xlink" id="Layer_1" width="48" height="48" x="0" y="0" enable-background="new 0 0 48 48" version="1.1" viewBox="0 0 48 48" xml:space="preserve"><g><path fill="#050505" d="M24,1.31c-12.583,0-22.785,10.201-22.785,22.785S11.417,46.88,24,46.88s22.785-10.201,22.785-22.785 S36.583,1.31,24,1.31z M24,40.936c-9.287,0-16.841-7.555-16.841-16.841S14.713,7.253,24,7.253s16.841,7.555,16.841,16.841 S33.287,40.936,24,40.936z"/><path fill="#050505" d="M32.079,21.1h-4.971v-8.894c0-1.641-1.32-2.972-2.961-2.972s-2.961,1.331-2.961,2.972v11.888 c0,1.642,1.326,2.984,2.967,2.984h7.925c1.641,0,2.972-1.348,2.972-2.989S33.72,21.1,32.079,21.1z"/></g></svg>