<svg xmlns="http://www.w3.org/2000/svg" xmlns:xlink="http://www.w3.org/1999/xlink" id="Layer_1" width="48" height="48" x="0" y="0" enable-background="new 0 0 48 48" version="1.1" viewBox="0 0 48 48" xml:space="preserve"><g><path fill="#050505" d="M13.998,23.998c0,3.091-2.509,5.589-5.607,5.589c-3.097,0-5.607-2.498-5.607-5.589 c0-3.082,2.511-5.585,5.607-5.585C11.489,18.413,13.998,20.916,13.998,23.998z"/><path fill="#050505" d="M29.349,23.998c0,3.091-2.509,5.589-5.607,5.589c-3.097,0-5.607-2.498-5.607-5.589 c0-3.082,2.511-5.585,5.607-5.585C26.84,18.413,29.349,20.916,29.349,23.998z"/><path fill="#050505" d="M44.699,23.998c0,3.091-2.509,5.589-5.607,5.589c-3.097,0-5.607-2.498-5.607-5.589 c0-3.082,2.511-5.585,5.607-5.585C42.19,18.413,44.699,20.916,44.699,23.998z"/></g></svg>