<svg xmlns="http://www.w3.org/2000/svg" xmlns:xlink="http://www.w3.org/1999/xlink" id="Layer_1" width="48" height="48" x="0" y="0" enable-background="new 0 0 48 48" version="1.1" viewBox="0 0 48 48" xml:space="preserve"><g><path fill="#050505" d="M36.822,7C39.126,7,41,8.875,41,11.178v25.645C41,39.127,39.126,41,36.822,41H11.178 C8.874,41,7,39.127,7,36.822V11.178C7,8.875,8.874,7,11.178,7H36.822 M36.822,1H11.178C5.557,1,1,5.557,1,11.178v25.645 C1,42.443,5.557,47,11.178,47h25.645C42.443,47,47,42.443,47,36.822V11.178C47,5.557,42.443,1,36.822,1L36.822,1z"/></g></svg>