<svg xmlns="http://www.w3.org/2000/svg" xmlns:xlink="http://www.w3.org/1999/xlink" id="Layer_1" width="48" height="48" x="0" y="0" enable-background="new 0 0 48 48" version="1.1" viewBox="0 0 48 48" xml:space="preserve"><path fill="#050505" d="M35.199,6.233c-3.944,0-7.427,1.98-9.51,4.997c0,0-0.703,1.052-1.818,1.052	c-1.114,0-1.817-1.052-1.817-1.052c-2.083-3.017-5.565-4.997-9.51-4.997C6.168,6.233,1,11.401,1,17.779	c0,1.506,0.296,2.939,0.82,4.258c3.234,10.041,17.698,21.849,22.051,22.279c4.354-0.431,18.817-12.238,22.052-22.279	c0.524-1.318,0.82-2.752,0.82-4.258C46.743,11.401,41.575,6.233,35.199,6.233z"/></svg>