<svg xmlns="http://www.w3.org/2000/svg" xmlns:xlink="http://www.w3.org/1999/xlink" id="Layer_1" width="48" height="48" x="0" y="0" enable-background="new 0 0 48 48" version="1.1" viewBox="0 0 48 48" xml:space="preserve"><path fill="#050505" d="M46.345,11.65c-1.091-2.032-3.162-3.336-5.274-3.336H7.928c-2.112,0-4.183,1.306-5.274,3.34	c-1.046,1.947-0.937,4.391,0.281,6.229l16.572,25.068c1.124,1.694,2.989,2.703,4.992,2.703c2.019,0,3.885-0.998,4.992-2.67	l16.572-25.01C47.278,16.141,47.392,13.601,46.345,11.65z M41.695,16.464l-8.817,13.31H16.157L7.304,16.38	c-0.392-0.592-0.429-1.435-0.092-2.063c0.379-0.707,1.079-1.191,1.702-1.191h31.17c0.624,0,1.324,0.483,1.701,1.188	C42.122,14.939,42.082,15.879,41.695,16.464z"/></svg>