<svg xmlns="http://www.w3.org/2000/svg" xmlns:xlink="http://www.w3.org/1999/xlink" id="Layer_1" width="48" height="48" x="0" y="0" enable-background="new 0 0 48 48" version="1.1" viewBox="0 0 48 48" xml:space="preserve"><path fill="#050505" d="M39.42,9.82H28.789V8.483c0-2.074-1.632-3.714-3.706-3.714H10.897V3.975c0-1.697-1.355-3.07-3.052-3.07	c-1.696,0-3.052,1.373-3.052,3.07v40.074c0,1.696,1.355,3.072,3.052,3.072c1.697,0,3.052-1.376,3.052-3.072V26.24h9.788v1.358	c0,2.074,1.642,3.799,3.716,3.799H39.42c2.074,0,3.788-1.725,3.788-3.799V13.604C43.208,11.53,41.494,9.82,39.42,9.82z"/></svg>