<svg xmlns="http://www.w3.org/2000/svg" xmlns:xlink="http://www.w3.org/1999/xlink" id="Layer_1" width="48" height="48" x="0" y="0" enable-background="new 0 0 48 48" version="1.1" viewBox="0 0 48 48" xml:space="preserve"><g><g><path fill="#050505" d="M41.388,14H6.612c-2.761,0-5-2.239-5-5s2.239-5,5-5h34.776c2.761,0,5,2.239,5,5S44.149,14,41.388,14z"/></g><g><path fill="#050505" d="M41.388,28.622H6.612c-2.761,0-5-2.239-5-5c0-2.762,2.239-5,5-5h34.776c2.761,0,5,2.238,5,5 C46.388,26.383,44.149,28.622,41.388,28.622z"/></g><g><path fill="#050505" d="M41.388,43.244H6.612c-2.761,0-5-2.239-5-5s2.239-5,5-5h34.776c2.761,0,5,2.239,5,5 S44.149,43.244,41.388,43.244z"/></g></g></svg>