<svg xmlns="http://www.w3.org/2000/svg" xmlns:xlink="http://www.w3.org/1999/xlink" id="Layer_1" width="48" height="48" x="0" y="0" enable-background="new 0 0 48 48" version="1.1" viewBox="0 0 48 48" xml:space="preserve"><g><path fill="#050505" d="M41.135,4H6.358c-2.761,0-5,2.238-5,5s2.239,5,5,5h34.776c2.761,0,5-2.238,5-5S43.896,4,41.135,4z"/><path fill="#050505" d="M29.135,19H6.358c-2.761,0-5,2.238-5,5s2.239,5,5,5h22.776c2.761,0,5-2.238,5-5S31.896,19,29.135,19z"/><path fill="#050505" d="M16.135,34H6.358c-2.761,0-5,2.238-5,5s2.239,5,5,5h9.776c2.761,0,5-2.238,5-5S18.896,34,16.135,34z"/></g></svg>