<svg xmlns="http://www.w3.org/2000/svg" xmlns:xlink="http://www.w3.org/1999/xlink" id="Layer_1" width="48" height="48" x="0" y="0" enable-background="new 0 0 48 48" version="1.1" viewBox="0 0 48 48" xml:space="preserve"><g><path fill="#050505" d="M27.509,42.354c0-1.967-1.6-3.553-3.566-3.553s-3.566,1.579-3.566,3.546c0,0.028,0.001,0.063,0.001,0.063 h7.13C27.507,42.41,27.509,42.383,27.509,42.354z"/><path fill="#050505" d="M46.886,36.407l-0.084-24.796c-0.012-3.326-2.711-6.046-6.037-6.046H7.037 c-1.605,0-3.145,0.668-4.276,1.806C1.628,8.506,0.994,10.063,1,11.667L1.083,36.44c0.011,3.095,2.349,5.642,5.353,5.98 c0-0.014,0-0.026,0-0.041c0-9.653,7.854-17.507,17.507-17.507s17.507,7.854,17.507,17.509c0,0.017,0,0.035,0,0.053 c1.384-0.138,2.685-0.752,3.675-1.746C46.257,39.552,46.891,38.012,46.886,36.407z"/><path fill="#050505" d="M15.397,42.354c0-4.712,3.833-8.531,8.545-8.531s8.545,3.813,8.545,8.524c0,0.028-0.002,0.063-0.002,0.063 h3.984c0,0,0.001-0.027,0.001-0.056c0-6.909-5.62-12.515-12.528-12.515s-12.529,5.6-12.529,12.508c0,0.028,0.001,0.063,0.001,0.063 h3.985C15.399,42.41,15.397,42.383,15.397,42.354z"/></g></svg>