<svg xmlns="http://www.w3.org/2000/svg" xmlns:xlink="http://www.w3.org/1999/xlink" id="Layer_1" width="100" height="100" x="0" y="0" enable-background="new 0 0 100 100" version="1.1" viewBox="0 0 100 100" xml:space="preserve"><path fill="#020202" d="M50,11.126c-20.871,0-37.791,16.92-37.791,37.791S29.129,86.708,50,86.708s37.791-16.92,37.791-37.791	S70.871,11.126,50,11.126z M71.566,54.988H55.487v16.077c0,2.755-2.232,4.988-4.987,4.988c-2.754,0-4.988-2.233-4.988-4.988V54.988	H29.435c-2.755,0-4.988-2.233-4.988-4.988s2.233-4.988,4.988-4.988h16.078V28.935c0-2.755,2.233-4.987,4.988-4.987	c2.755,0,4.987,2.232,4.987,4.987v16.078h16.079c2.754,0,4.988,2.233,4.988,4.988S74.32,54.988,71.566,54.988z"/></svg>