<svg xmlns="http://www.w3.org/2000/svg" xmlns:xlink="http://www.w3.org/1999/xlink" id="Layer_3" width="100" height="100" x="0" y="0" enable-background="new 0 0 100 100" version="1.1" viewBox="0 0 100 100" xml:space="preserve"><path d="M88.553,57.499c-0.002,0.83-0.672,1.5-1.502,1.501l-43.33-0.001l7.393,18.719c0.246,0.627,0.047,1.344-0.492,1.749	c-0.539,0.407-1.283,0.405-1.818-0.009l-36.77-28.269c-0.369-0.283-0.586-0.724-0.586-1.188c0-0.467,0.217-0.906,0.586-1.19	l36.77-28.269c0.27-0.207,0.592-0.312,0.916-0.312c0.316,0,0.635,0.101,0.902,0.303c0.539,0.405,0.74,1.122,0.492,1.749L43.719,41	l43.332-0.001c0.83,0.001,1.5,0.672,1.5,1.5L88.553,57.499z"/></svg>