<svg xmlns="http://www.w3.org/2000/svg" xmlns:xlink="http://www.w3.org/1999/xlink" id="Layer_3" width="100" height="100" x="0" y="0" enable-background="new 0 0 100 100" version="1.1" viewBox="0 0 100 100" xml:space="preserve"><path d="M50,11.448c0.466,0,0.905,0.216,1.189,0.586l28.27,36.77c0.208,0.269,0.311,0.592,0.311,0.914	c0,0.318-0.101,0.635-0.302,0.903c-0.406,0.539-1.122,0.74-1.749,0.492L59,43.719v43.333c0,0.829-0.671,1.5-1.5,1.5h-15	c-0.829,0-1.5-0.671-1.5-1.5V43.719l-18.718,7.394c-0.627,0.248-1.343,0.046-1.749-0.492c-0.406-0.538-0.404-1.282,0.009-1.817	l28.269-36.77C49.095,11.665,49.534,11.448,50,11.448z"/></svg>