<svg xmlns="http://www.w3.org/2000/svg" xmlns:xlink="http://www.w3.org/1999/xlink" id="Layer_3" width="100" height="100" x="0" y="0" enable-background="new 0 0 100 100" version="1.1" viewBox="0 0 100 100" xml:space="preserve"><path d="M79.457,51.196l-28.268,36.77c-0.283,0.369-0.725,0.586-1.189,0.586c-0.467,0-0.906-0.217-1.189-0.586l-28.27-36.77	c-0.207-0.27-0.311-0.592-0.311-0.915c0-0.317,0.1-0.635,0.303-0.903c0.404-0.538,1.121-0.739,1.748-0.492L41,56.28l-0.002-43.332	c0.002-0.829,0.672-1.5,1.502-1.5h14.998c0.83,0,1.5,0.671,1.502,1.5L58.998,56.28l18.719-7.395c0.627-0.247,1.344-0.046,1.75,0.493	C79.873,49.917,79.871,50.661,79.457,51.196z"/></svg>