<svg xmlns="http://www.w3.org/2000/svg" xmlns:xlink="http://www.w3.org/1999/xlink" id="Layer_3" width="100" height="100" x="0" y="0" enable-background="new 0 0 100 100" version="1.1" viewBox="0 0 100 100" xml:space="preserve"><path d="M79.912,32.816L49.271,63.456l18.465,8.008c0.617,0.269,0.982,0.917,0.887,1.585c-0.092,0.668-0.619,1.193-1.291,1.279	l-45.988,6.011c-0.461,0.061-0.926-0.098-1.256-0.426c-0.33-0.33-0.486-0.794-0.426-1.256l6.01-45.989	c0.045-0.337,0.199-0.639,0.428-0.867c0.225-0.225,0.52-0.378,0.852-0.425c0.668-0.094,1.316,0.271,1.586,0.889l8.006,18.464	l30.641-30.641c0.586-0.585,1.535-0.585,2.121,0l10.607,10.606C80.498,31.281,80.498,32.229,79.912,32.816z"/></svg>