<svg xmlns="http://www.w3.org/2000/svg" xmlns:xlink="http://www.w3.org/1999/xlink" id="Layer_2" width="100" height="100" x="0" y="0" enable-background="new 0 0 100 100" version="1.1" viewBox="0 0 100 100" xml:space="preserve"><path d="M75,86c-1.104,0-2-0.896-2-2V18H27v66c0,1.104-0.896,2-2,2s-2-0.896-2-2V16c0-1.104,0.896-2,2-2h50c1.104,0,2,0.896,2,2v68	C77,85.104,76.104,86,75,86z M70.5,21.5V84h-41V21.5H70.5z M39.5,53.25c0-1.795-1.231-3.25-2.75-3.25S34,51.455,34,53.25	s1.231,3.25,2.75,3.25S39.5,55.045,39.5,53.25z"/></svg>