<svg xmlns="http://www.w3.org/2000/svg" xmlns:xlink="http://www.w3.org/1999/xlink" id="Layer_1" width="100" height="100" x="0" y="0" enable-background="new 0 0 100 100" version="1.1" viewBox="0 0 100 100" xml:space="preserve"><path fill="#020202" d="M64.96,11.126H25.829c-2.627,0-4.767,2.141-4.767,4.768v68.213c0,2.63,2.14,4.768,4.767,4.768h47.932	c2.63,0,4.768-2.138,4.768-4.768V25.869L64.96,11.126z M66.085,18.261l5.948,6.463h-5.948V18.261z M74.525,84.106	c0,0.421-0.344,0.765-0.765,0.765H25.829c-0.421,0-0.763-0.344-0.763-0.765V15.894c0-0.421,0.342-0.762,0.763-0.762H62.08v11.595	c0,1.104,0.899,1.999,2.003,1.999h10.442V84.106z M29.358,70.583h39v8h-39V70.583z"/></svg>