<svg xmlns="http://www.w3.org/2000/svg" xmlns:xlink="http://www.w3.org/1999/xlink" id="Layer_1" width="100" height="100" x="0" y="0" enable-background="new 0 0 100 100" version="1.1" viewBox="0 0 100 100" xml:space="preserve"><path fill="#020202" d="M66.118,13.377H26.987c-2.627,0-4.767,2.141-4.767,4.768v68.213c0,2.63,2.14,4.768,4.767,4.768h47.932	c2.63,0,4.768-2.138,4.768-4.768V28.12L66.118,13.377z M67.243,20.512l5.948,6.463h-5.948V20.512z M75.684,86.357	c0,0.421-0.344,0.765-0.765,0.765H26.987c-0.421,0-0.763-0.344-0.763-0.765V18.145c0-0.421,0.342-0.762,0.763-0.762h36.251v11.595	c0,1.104,0.899,1.999,2.003,1.999h10.442V86.357z"/></svg>