<svg xmlns="http://www.w3.org/2000/svg" xmlns:xlink="http://www.w3.org/1999/xlink" id="Layer_1" width="100" height="100" x="0" y="0" enable-background="new 0 0 100 100" version="1.1" viewBox="0 0 100 100" xml:space="preserve"><path fill="#020202" d="M65.165,11.126H26.034c-2.627,0-4.767,2.141-4.767,4.768v68.213c0,2.63,2.14,4.768,4.767,4.768h47.932	c2.63,0,4.768-2.138,4.768-4.768V25.869L65.165,11.126z M66.29,18.261l5.948,6.463H66.29V18.261z M74.73,84.106	c0,0.421-0.344,0.765-0.765,0.765H26.034c-0.421,0-0.763-0.344-0.763-0.765V15.894c0-0.421,0.342-0.762,0.763-0.762h36.251v11.595	c0,1.104,0.899,1.999,2.003,1.999H74.73V84.106z M50,16.101l4.254,7.354h-8.509L50,16.101z M45.746,75.935h8.509L50,83.289	L45.746,75.935z"/></svg>