<svg xmlns="http://www.w3.org/2000/svg" xmlns:xlink="http://www.w3.org/1999/xlink" id="Layer_2" width="100" height="100" x="0" y="0" enable-background="new 0 0 100 100" version="1.1" viewBox="0 0 100 100" xml:space="preserve"><path d="M76.712,78.062v4.574H23.288v-4.574h15.89c-2.627-0.911-4.949-2.204-6.94-3.912c-4.27-3.662-6.404-9.087-6.404-16.276V21.47	h12.728v35.674c0,3.892,0.959,6.858,2.878,8.898c1.919,2.041,4.676,3.061,8.27,3.061c3.621,0,6.447-0.946,8.473-2.838	c2.027-1.891,3.04-4.743,3.04-8.554V21.47h12.689v35.755c0,7.324-2.035,12.891-6.102,16.702c-1.937,1.815-4.358,3.185-7.23,4.135	H76.712z"/></svg>