<svg xmlns="http://www.w3.org/2000/svg" xmlns:xlink="http://www.w3.org/1999/xlink" id="Layer_3" width="100" height="100" x="0" y="0" enable-background="new 0 0 100 100" version="1.1" viewBox="0 0 100 100" xml:space="preserve"><path d="M78.754,17.473H63.38c-1.501,0-2.718,1.217-2.718,2.718s1.217,2.718,2.718,2.718h7.136l-17.15,17.15	c-3.477-2.128-7.561-3.357-11.927-3.357c-12.634,0-22.912,10.278-22.912,22.912c0,12.634,10.278,22.912,22.912,22.912	c12.634,0,22.912-10.278,22.912-22.912c0-5.464-1.925-10.484-5.128-14.426l16.813-16.813v8.134c0,1.501,1.217,2.718,2.718,2.718	s2.718-1.217,2.718-2.718V20.191C81.472,18.69,80.255,17.473,78.754,17.473z M41.439,74.76c-8.351,0-15.146-6.794-15.146-15.146	c0-8.351,6.794-15.145,15.146-15.145c8.351,0,15.145,6.794,15.145,15.145C56.584,67.966,49.79,74.76,41.439,74.76z"/></svg>