<svg xmlns="http://www.w3.org/2000/svg" xmlns:xlink="http://www.w3.org/1999/xlink" id="Layer_3" width="100" height="100" x="0" y="0" enable-background="new 0 0 100 100" version="1.1" viewBox="0 0 100 100" xml:space="preserve"><path d="M78.946,44.5v11c0,0.828-0.671,1.5-1.5,1.5H57.113v20.333c0,0.829-0.672,1.5-1.5,1.5h-11c-0.828,0-1.5-0.671-1.5-1.5V57	H22.78c-0.829,0-1.5-0.672-1.5-1.5v-11c0-0.828,0.671-1.5,1.5-1.5h20.333V22.667c0-0.829,0.672-1.5,1.5-1.5h11	c0.828,0,1.5,0.671,1.5,1.5V43h20.333C78.275,43,78.946,43.672,78.946,44.5z"/></svg>