<svg xmlns="http://www.w3.org/2000/svg" xmlns:xlink="http://www.w3.org/1999/xlink" id="Layer_1" width="100" height="100" x="0" y="0" enable-background="new 0 0 100 100" version="1.1" viewBox="0 0 100 100" xml:space="preserve"><path fill="#020202" d="M68.229,45.714L82.25,24.723v53.213L68.299,54.278c2.131-0.272,3.785-2.073,3.785-4.278	C72.083,47.771,70.394,45.955,68.229,45.714z M17.75,6.5v87H25v-87H17.75z M82.25,6.5v14.769L65.532,46.295	c-1.089,0.653-1.858,1.763-2.052,3.072l-0.171,0.256l0.124,0.211c-0.002,0.057-0.017,0.109-0.017,0.166	c0,1.689,0.976,3.138,2.387,3.853L82.25,81.741V93.5h-55v-87H82.25z M57.75,41.667H32.417V55H57.75V41.667z"/></svg>