<svg xmlns="http://www.w3.org/2000/svg" xmlns:xlink="http://www.w3.org/1999/xlink" id="Layer_3" width="100" height="100" x="0" y="0" enable-background="new 0 0 100 100" version="1.1" viewBox="0 0 100 100" xml:space="preserve"><path d="M87.185,77.688L53.021,18.517c-0.625-1.083-1.781-1.75-3.031-1.75s-2.406,0.667-3.031,1.75L12.626,77.982	c-0.625,1.083-0.625,2.417,0,3.5s1.781,1.75,3.031,1.75h68.666c0.007,0,0.015,0.001,0.02,0c1.934,0,3.5-1.567,3.5-3.5	C87.843,78.969,87.599,78.263,87.185,77.688z M21.72,76.232L49.99,27.267l28.271,48.966H21.72z M57.924,45.5l-9.591,10.658h8.524	l-17.05,17.049l6.395-13.852h-7.459L47.267,45.5H57.924z"/></svg>