<svg xmlns="http://www.w3.org/2000/svg" xmlns:xlink="http://www.w3.org/1999/xlink" id="Layer_6" width="100" height="100" x="0" y="0" enable-background="new 0 0 100 100" version="1.1" viewBox="0 0 100 100" xml:space="preserve"><path d="M86.667,80.333v4H13.333V15.667h4v64.667H86.667z M39.646,56.246l5.394-12.502l6.787,10.181l8.722-7.51l5.987,6.237	l12.132-18.396V21.667l-12.25,18.5l-6-6.25l-9,7.75l-6-9l-5.5,12.75l-10.25-10.75l-10.75,4.75v12.454L30.1,46.698L39.646,56.246z M78.667,37.832l-12.25,18.5l-6-6.25l-9,7.75l-6-9l-5.5,12.75l-10.25-11.75l-10.75,4.75v23.335h59.75V37.832z"/></svg>