<svg xmlns="http://www.w3.org/2000/svg" xmlns:xlink="http://www.w3.org/1999/xlink" id="Layer_5" width="100" height="100" x="0" y="0" enable-background="new 0 0 100 100" version="1.1" viewBox="0 0 100 100" xml:space="preserve"><path d="M23.45,73.214c-5.587-9.854-1.785-25.308,9.774-36.87c13.127-13.125,31.278-16.254,40.544-6.989	c0.011,0.012,0.021,0.026,0.035,0.038c-1.854,5.396-7.76,16.877-25.464,23.084C32.121,58.166,25.865,67.212,23.45,73.214z M76.375,32.728c-1.405,3.277-3.85,7.559-8.062,11.771c-4.234,4.236-10.252,8.396-18.776,11.386	c-17.3,6.066-22.134,15.998-23.483,20.811c0.064,0.064,0.119,0.131,0.181,0.193c9.266,9.266,27.417,6.137,40.543-6.99	C78.458,58.219,82.214,42.565,76.375,32.728z"/></svg>