<svg xmlns="http://www.w3.org/2000/svg" xmlns:xlink="http://www.w3.org/1999/xlink" id="Capa_1" width="100" height="100" x="0" y="0" enable-background="new 0 0 100 100" version="1.1" viewBox="0 0 100 100" xml:space="preserve"><g id="Layer_8"><path d="M49.099,50c0,1.23-0.657,2.369-1.723,2.984l-35.76,29.839c-1.065,0.616-2.379,0.616-3.445,0s-1.723-1.753-1.723-2.984 V20.16c0-1.23,0.656-2.368,1.723-2.984c0.533-0.308,1.128-0.461,1.723-0.461c0.596,0,1.189,0.154,1.723,0.461l35.761,29.839 C48.442,47.631,49.099,48.769,49.099,50z M91.831,47.016L56.07,17.177c-0.532-0.308-1.127-0.461-1.723-0.461 s-1.188,0.154-1.723,0.461c-1.066,0.616-1.723,1.753-1.723,2.984V79.84c0,1.23,0.656,2.368,1.723,2.984 c1.066,0.615,2.379,0.615,3.445,0l35.76-29.84c1.066-0.614,1.723-1.752,1.723-2.983C93.553,48.77,92.896,47.631,91.831,47.016z"/></g></svg>