<svg xmlns="http://www.w3.org/2000/svg" xmlns:xlink="http://www.w3.org/1999/xlink" id="Capa_1" width="100" height="100" x="0" y="0" enable-background="new 0 0 100 100" version="1.1" viewBox="0 0 100 100" xml:space="preserve"><g id="Layer_8"><path d="M42.063,59.126c-4.094-2.688-6.8-7.317-6.8-12.582c0-8.31,6.738-15.047,15.047-15.047c8.311,0,15.047,6.737,15.047,15.047 c0,5.265-2.705,9.894-6.799,12.582c6.475,3.086,10.948,9.688,10.948,17.338H31.114C31.114,68.816,35.588,62.212,42.063,59.126z M84.909,9.811v80.378H15.091V9.811H84.909z M24.45,19.037v60.109h51.722V19.037H24.45z M17.188,12.964v72.744l4.466-4.681V17.644 L17.188,12.964z M78.967,80.98l3.844,4.027V13.665l-3.844,4.028V80.98z"/></g></svg>