<svg xmlns="http://www.w3.org/2000/svg" xmlns:xlink="http://www.w3.org/1999/xlink" id="Layer_5" width="100" height="100" x="0" y="0" enable-background="new 0 0 100 100" version="1.1" viewBox="0 0 100 100" xml:space="preserve"><path d="M83,26.434H17c-1.93,0-3.5,1.57-3.5,3.5v40.03c0,1.93,1.57,3.5,3.5,3.5h66c1.93,0,3.5-1.57,3.5-3.5v-40.03	C86.5,28.004,84.93,26.434,83,26.434z M83.5,69.964c0,0.276-0.224,0.5-0.5,0.5H17c-0.276,0-0.5-0.224-0.5-0.5v-40.03	c0-0.276,0.224-0.5,0.5-0.5h66c0.276,0,0.5,0.224,0.5,0.5V69.964z"/></svg>