<svg xmlns="http://www.w3.org/2000/svg" xmlns:xlink="http://www.w3.org/1999/xlink" id="Layer_7" width="100" height="100" x="0" y="0" enable-background="new 0 0 100 100" version="1.1" viewBox="0 0 100 100" xml:space="preserve"><path d="M83.112,16.688v66.588c0,0.952-0.772,1.724-1.725,1.724l-62.775,0.035c-0.951,0-1.724-0.772-1.724-1.724V66.003	c0-0.952,0.772-1.724,1.724-1.724h9.959c0.533,0,1.004,0.248,1.32,0.629v-9.631c0-0.951,0.771-1.724,1.725-1.724h9.957	c0.953,0,1.725,0.772,1.725,1.724V43.021c0-0.952,0.771-1.724,1.723-1.724h9.959c0.533,0,1.005,0.248,1.321,0.629v-9.63	c0-0.952,0.771-1.724,1.724-1.724h9.958c0.952,0,1.724,0.771,1.724,1.724V16.688c0-0.951,0.771-1.724,1.724-1.724h9.958	C82.34,14.965,83.112,15.737,83.112,16.688z"/></svg>