<svg xmlns="http://www.w3.org/2000/svg" xmlns:xlink="http://www.w3.org/1999/xlink" id="Capa_1" width="64" height="64" x="0" style="enable-background:new 0 0 64 64" y="0" version="1.1" viewBox="0 0 64 64" xml:space="preserve"><g><path d="M12.683,46.254l14.122-4.47l1.201,3.137c0.152,0.397,0.531,0.643,0.934,0.643c0.112,0,0.226-0.019,0.337-0.059l9.273-3.32 c0.508-0.182,0.78-0.734,0.615-1.248l-0.895-2.783l20.457-6.475c0,0,1.696-4.468-2.309-10.815l-0.297-0.549 c-3.128-6.823-7.796-7.843-7.796-7.843L10.959,43.071l-6.498,1.106l3.745,6.914L12.683,46.254z M36.364,38.759l0.601,1.87 l-7.441,2.664l-0.809-2.113L36.364,38.759z"/></g></svg>