<svg xmlns="http://www.w3.org/2000/svg" xmlns:xlink="http://www.w3.org/1999/xlink" id="Capa_1" x="0" y="0" version="1.1" viewBox="0 0 944.22 944.22" xml:space="preserve" style="enable-background:new 0 0 944.22 944.22"><g><rect width="801.882" height="466.883" x="86.63" y="477.337"/><polygon points="249.686 442.337 248.13 444.645 379.565 444.645 381.121 442.337 464.058 319.269 332.623 319.269"/><polygon points="509.804 442.337 508.249 444.645 639.684 444.645 641.24 442.337 724.177 319.269 592.742 319.269"/><polygon points="86.629 444.645 119.447 444.645 121.002 442.337 203.939 319.269 86.629 319.269 86.629 442.337"/><polygon points="768.368 444.645 888.511 444.645 888.511 442.337 888.511 319.269 852.861 319.269 769.923 442.337"/><polygon points="212.22 157.935 325.025 258.6 452.4 226.185 339.596 125.519"/><polygon points="464.304 93.783 577.108 194.448 704.484 162.033 591.68 61.367"/><polygon points="716.388 29.631 829.192 130.296 863.742 121.504 832.821 0"/><polygon points="87.512 189.672 55.708 197.765 86.629 319.269 200.316 290.337"/></g></svg>