<svg xmlns="http://www.w3.org/2000/svg" xmlns:xlink="http://www.w3.org/1999/xlink" id="Capa_1" x="0" y="0" version="1.1" viewBox="0 0 925.633 925.633" xml:space="preserve" style="enable-background:new 0 0 925.633 925.633"><g><path d="M62.841,698.594h747.204v-57.265l115.587-219.141c0,0-54.046-27.842-124.361-27.845 c-50.635-0.002-109.7,14.432-163.122,64.093c0,0-75.63-231.396-305.763-231.396c-13.392,0-27.29,0.782-41.745,2.44l103.748,411.849 h-36.093l-75.519-299.785c-24.373-8.954-53.075-14.789-86.518-14.789c-17.073,0-35.357,1.516-54.95,4.912l37.121,132.371 l49.718,177.292H191.8l-55.869-199.225C99.081,427.888,53.634,422.102,0,436.404l62.841,205.805V698.594z"/></g></svg>